<mxfile host="app.diagrams.net" modified="2023-12-05T02:22:02.023Z" agent="Mozilla/5.0 (Windows NT 10.0; Win64; x64) AppleWebKit/537.36 (KHTML, like Gecko) Chrome/119.0.0.0 Safari/537.36 Edg/119.0.0.0" etag="zYOU3xvJbSOFF_s2_Y1O" version="22.1.5" type="github">
  <diagram name="第 1 页" id="lBMDqDCB9liM9ads8yYz">
    <mxGraphModel dx="1213" dy="738" grid="1" gridSize="10" guides="1" tooltips="1" connect="1" arrows="1" fold="1" page="1" pageScale="1" pageWidth="827" pageHeight="1169" math="0" shadow="0">
      <root>
        <mxCell id="0" />
        <mxCell id="1" parent="0" />
        <mxCell id="3pHaT_44PoDzVHIMuj_i-31" value="ActivityThread" style="shape=umlLifeline;perimeter=lifelinePerimeter;whiteSpace=wrap;html=1;container=1;dropTarget=0;collapsible=0;recursiveResize=0;outlineConnect=0;portConstraint=eastwest;newEdgeStyle={&quot;curved&quot;:0,&quot;rounded&quot;:0};" vertex="1" parent="1">
          <mxGeometry x="50" y="40" width="100" height="300" as="geometry" />
        </mxCell>
        <mxCell id="3pHaT_44PoDzVHIMuj_i-41" value="&lt;font color=&quot;#7f00ff&quot; style=&quot;font-size: 15px;&quot;&gt;main()&lt;br&gt;prepareMainLooper()&lt;/font&gt;&lt;br&gt;通过ThreadLocal创建Looper。&lt;br&gt;&lt;font style=&quot;font-size: 14px;&quot; color=&quot;#7f00ff&quot;&gt;Looper.loop()&lt;br&gt;&lt;/font&gt;开启消息循环" style="rounded=0;whiteSpace=wrap;html=1;align=left;verticalAlign=top;" vertex="1" parent="1">
          <mxGeometry x="100" y="110" width="160" height="110" as="geometry" />
        </mxCell>
      </root>
    </mxGraphModel>
  </diagram>
</mxfile>
